<?xml version="1.0" encoding="UTF-8" standalone="no"?>
<svg
   width="64"
   height="64"
   fill="currentColor"
   class="bi bi-stars"
   viewBox="0 0 64 64"
   version="1.1"
   id="svg1"
   sodipodi:docname="hyades-symbol.svg"
   inkscape:version="1.3.2 (091e20e, 2023-11-25, custom)"
   inkscape:export-filename="hyades-symbol.png"
   inkscape:export-xdpi="96"
   inkscape:export-ydpi="96"
   xmlns:inkscape="http://www.inkscape.org/namespaces/inkscape"
   xmlns:sodipodi="http://sodipodi.sourceforge.net/DTD/sodipodi-0.dtd"
   xmlns="http://www.w3.org/2000/svg"
   xmlns:svg="http://www.w3.org/2000/svg">
  <defs
     id="defs1" />
  <sodipodi:namedview
     id="namedview1"
     pagecolor="#ffffff"
     bordercolor="#000000"
     borderopacity="0.25"
     inkscape:showpageshadow="2"
     inkscape:pageopacity="0.0"
     inkscape:pagecheckerboard="0"
     inkscape:deskcolor="#d1d1d1"
     inkscape:zoom="4.8889805"
     inkscape:cx="17.283767"
     inkscape:cy="12.57931"
     inkscape:window-width="1920"
     inkscape:window-height="1009"
     inkscape:window-x="-8"
     inkscape:window-y="-8"
     inkscape:window-maximized="1"
     inkscape:current-layer="svg1" />
  <path
     d="m 32.464298,25.420774 c 0.412496,-1.237532 2.160023,-1.237532 2.572501,0 l 2.418771,7.263755 a 10.837541,10.837541 0 0 0 6.858789,6.855034 l 7.26003,2.418743 c 1.237487,0.412527 1.237487,2.160001 0,2.572524 l -7.263803,2.418765 a 10.837541,10.837541 0 0 0 -6.855016,6.858777 l -2.418771,7.260027 a 1.3537555,1.3537555 0 0 1 -2.572501,0 l -2.41877,-7.263788 A 10.837541,10.837541 0 0 0 23.190513,46.949595 L 15.926737,44.53083 a 1.3537555,1.3537555 0 0 1 0,-2.572524 l 7.263776,-2.418743 a 10.837541,10.837541 0 0 0 6.855015,-6.855034 z M 17.977993,6.2994387 a 0.81375324,0.81375324 0 0 1 1.545007,0 l 1.451255,4.3575213 c 0.648752,1.942504 2.171258,3.465011 4.113763,4.113763 l 4.357505,1.451251 a 0.81375324,0.81375324 0 0 1 0,1.545007 l -4.357505,1.451267 a 6.4875249,6.4875249 0 0 0 -4.113763,4.113748 L 19.523,27.68951 a 0.81375324,0.81375324 0 0 1 -1.545007,0 L 16.526738,23.331996 A 6.4875249,6.4875249 0 0 0 12.41297,19.218248 L 8.05545,17.766981 a 0.81375324,0.81375324 0 0 1 0,-1.545007 l 4.35752,-1.451251 a 6.4875249,6.4875249 0 0 0 4.113768,-4.113763 z m 26.508846,-3.933767 a 0.54375211,0.54375211 0 0 1 1.027529,0 l 0.967488,2.902514 c 0.431256,1.297506 1.447521,2.31376 2.74501,2.745012 l 2.902526,0.967504 a 0.54375211,0.54375211 0 0 1 0,1.0275023 l -2.902526,0.967504 a 4.3500187,4.3500187 0 0 0 -2.74501,2.745012 l -0.967488,2.902512 a 0.54375211,0.54375211 0 0 1 -1.027529,0 L 43.519356,13.72072 a 4.3500187,4.3500187 0 0 0 -2.745027,-2.745012 l -2.898755,-0.967504 a 0.54375211,0.54375211 0 0 1 0,-1.0275023 l 2.902524,-0.967504 c 1.297479,-0.431252 2.313728,-1.447506 2.745008,-2.745012 z"
     id="path1"
     style="display:inline;fill:#f05722;fill-opacity:1;stroke-width:3.75" />
</svg>
