<?xml version="1.0" encoding="UTF-8" standalone="no"?>
<svg
   width="120"
   height="34"
   fill="currentColor"
   class="bi bi-stars"
   viewBox="0 0 120 34"
   version="1.1"
   id="svg1"
   xmlns="http://www.w3.org/2000/svg"
   xmlns:svg="http://www.w3.org/2000/svg">
  <defs
     id="defs1" />
  <path
     d="m 15.182346,13.604542 c 0.212884,-0.638675 1.114761,-0.638675 1.327636,0 l 1.248298,3.748735 a 5.5931225,5.5931225 0 0 0 3.539737,3.537799 l 3.746813,1.248284 c 0.638652,0.2129 0.638652,1.11475 0,1.327648 l -3.74876,1.248295 a 5.5931225,5.5931225 0 0 0 -3.53779,3.539731 l -1.248298,3.746811 a 0.69865663,0.69865663 0 0 1 -1.327636,0 l -1.248298,-3.748752 a 5.5931225,5.5931225 0 0 0 -3.537789,-3.53779 L 6.6475122,23.467008 a 0.69865663,0.69865663 0 0 1 0,-1.327648 l 3.7487468,-1.248284 a 5.5931225,5.5931225 0 0 0 3.537789,-3.537799 z M 7.7061407,3.7362554 a 0.41996809,0.41996809 0 0 1 0.7973587,0 l 0.748975,2.2488623 C 9.5872876,6.987621 10.373035,7.7733682 11.375538,8.1081812 l 2.248855,0.7489728 a 0.41996809,0.41996809 0 0 1 0,0.797359 l -2.248855,0.748981 a 3.3481322,3.3481322 0 0 0 -2.1230636,2.123055 l -0.748975,2.24886 a 0.41996809,0.41996809 0 0 1 -0.7973587,0 L 6.9571661,12.526549 A 3.3481322,3.3481322 0 0 0 4.8341008,10.403494 L 2.5852377,9.654513 a 0.41996809,0.41996809 0 0 1 0,-0.797359 L 4.8341008,8.1081812 A 3.3481322,3.3481322 0 0 0 6.9571661,5.9851177 Z M 21.387032,1.7060858 a 0.28062381,0.28062381 0 0 1 0.530295,0 l 0.499309,1.4979522 c 0.222566,0.6696268 0.747048,1.1941026 1.416666,1.4166665 l 1.497958,0.4993171 a 0.28062381,0.28062381 0 0 1 0,0.5302816 L 23.833302,6.1496201 A 2.2449914,2.2449914 0 0 0 22.416636,7.5662874 L 21.917327,9.064238 a 0.28062381,0.28062381 0 0 1 -0.530295,0 L 20.887726,7.5662874 A 2.2449914,2.2449914 0 0 0 19.471051,6.1496201 L 17.975039,5.6503032 a 0.28062381,0.28062381 0 0 1 0,-0.5302816 L 19.472996,4.6207045 C 20.142609,4.3981406 20.667083,3.8736648 20.889661,3.204038 Z"
     id="path1"
     style="display:inline;fill:#f05722;fill-opacity:1;stroke-width:1.93533" />
  <path
     d="m 45.447584,19.608913 v 8.333344 h -1.83594 V 9.4396294 h 1.83594 V 17.772973 H 53.66374 V 9.4396294 h 1.83594 V 27.942257 h -1.83594 v -8.333344 z"
     id="path2"
     style="font-weight:500;font-size:26.6667px;line-height:0px;font-family:'Champagne &amp; Limousines';-inkscape-font-specification:'Champagne &amp; Limousines Medium';letter-spacing:1px;fill:#1b1e50;stroke-width:1.54826" />
  <path
     style="font-weight:500;font-size:21.3333px;line-height:0px;font-family:'Champagne &amp; Limousines';-inkscape-font-specification:'Champagne &amp; Limousines Medium';letter-spacing:1px;fill:#1b1e50;stroke-width:1.54826"
     d="m 63.161131,21.973516 -5.104159,-8.833319 h 1.677081 l 4.156243,7.197905 4.156244,-7.197905 h 1.687497 l -5.104158,8.833319 v 5.968741 h -1.468748 z m 14.885395,-1.70833 -1.67708,-4.624993 -1.677081,4.624993 z m -1.031248,-7.124989 5.374992,14.80206 h -1.552081 l -2.260413,-6.21874 h -4.41666 l -2.30208,6.21874 h -1.562497 l 5.437491,-14.80206 z m 10.520818,0 q 3.624994,0.02083 5.645824,2.041663 2.20833,2.229164 2.20833,5.354159 0,3.145828 -2.20833,5.364574 -2.02083,2.020831 -5.645824,2.041664 h -2.958329 v -14.80206 z m -1.489581,1.489581 v 11.822898 h 1.479164 q 2.906246,0 4.57291,-1.604164 1.781247,-1.781247 1.781247,-4.312493 0,-2.52083 -1.781247,-4.312494 -1.666664,-1.593747 -4.57291,-1.593747 z m 19.895805,-1.489581 v 1.458331 h -6.270824 v 5.208325 h 6.270824 v 1.468748 h -6.270824 v 5.197908 h 6.270824 v 1.468748 h -7.739572 v -14.80206 z m 7.39582,6.947906 q -1.57291,-0.520833 -2.53125,-1.468748 -0.94791,-0.947915 -0.94791,-2.343746 0,-1.354165 0.96875,-2.33333 0.97916,-0.979165 2.36458,-0.979165 1.36458,0 2.35416,0.979165 0.53125,0.520833 0.85417,1.479164 l -1.33334,0.520833 q -0.25,-0.677082 -0.56249,-0.989582 -0.54167,-0.541666 -1.3125,-0.541666 -0.77083,0 -1.32292,0.541666 -0.54166,0.541666 -0.54166,1.322915 0,0.781248 0.54166,1.322914 0.55209,0.552083 1.54167,1.010415 1.76041,0.562499 2.97916,1.781248 1.3125,1.322914 1.3125,3.187494 0,1.874998 -1.32292,3.208329 -1.32291,1.322914 -3.18749,1.322914 -1.88542,0 -3.19791,-1.333331 -1.0625,-1.062498 -1.3125,-2.739579 l 1.40625,-0.499999 q 0.15625,1.447914 0.92708,2.218746 0.90625,0.895832 2.17708,0.895832 1.27083,0 2.16666,-0.895832 0.90625,-0.906248 0.90625,-2.17708 0,-1.260414 -0.89583,-2.166663 -0.83333,-0.833332 -2.03125,-1.322914 z"
     id="path3" />
</svg>
