<?xml version="1.0" encoding="UTF-8" standalone="no"?>
<svg
   width="34"
   height="34"
   fill="currentColor"
   class="bi bi-stars"
   viewBox="0 0 34 34"
   version="1.1"
   id="svg1"
   sodipodi:docname="hyades-favicon.svg"
   inkscape:version="1.3.2 (091e20e, 2023-11-25, custom)"
   inkscape:export-filename="hyades-favicon.png"
   inkscape:export-xdpi="96"
   inkscape:export-ydpi="96"
   xmlns:inkscape="http://www.inkscape.org/namespaces/inkscape"
   xmlns:sodipodi="http://sodipodi.sourceforge.net/DTD/sodipodi-0.dtd"
   xmlns="http://www.w3.org/2000/svg"
   xmlns:svg="http://www.w3.org/2000/svg">
  <defs
     id="defs1" />
  <sodipodi:namedview
     id="namedview1"
     pagecolor="#ffffff"
     bordercolor="#000000"
     borderopacity="0.25"
     inkscape:showpageshadow="2"
     inkscape:pageopacity="0.0"
     inkscape:pagecheckerboard="0"
     inkscape:deskcolor="#d1d1d1"
     inkscape:zoom="4.8889805"
     inkscape:cx="75.987212"
     inkscape:cy="25.874515"
     inkscape:window-width="1920"
     inkscape:window-height="1009"
     inkscape:window-x="-8"
     inkscape:window-y="-8"
     inkscape:window-maximized="1"
     inkscape:current-layer="svg1" />
  <path
     d="m 18.271794,13.604542 c 0.212884,-0.638675 1.114761,-0.638675 1.327636,0 l 1.248298,3.748735 a 5.5931225,5.5931225 0 0 0 3.539737,3.537799 l 3.746813,1.248284 c 0.638652,0.2129 0.638652,1.11475 0,1.327648 l -3.74876,1.248295 a 5.5931225,5.5931225 0 0 0 -3.53779,3.539731 l -1.248298,3.746811 a 0.69865663,0.69865663 0 0 1 -1.327636,0 l -1.248298,-3.748752 a 5.5931225,5.5931225 0 0 0 -3.537789,-3.53779 L 9.7369606,23.467008 a 0.69865663,0.69865663 0 0 1 0,-1.327648 l 3.7487464,-1.248284 a 5.5931225,5.5931225 0 0 0 3.537789,-3.537799 z M 10.795589,3.7362554 a 0.41996809,0.41996809 0 0 1 0.797359,0 l 0.748975,2.2488623 c 0.334813,1.0025033 1.12056,1.7882505 2.123063,2.1230635 l 2.248855,0.7489728 a 0.41996809,0.41996809 0 0 1 0,0.797359 l -2.248855,0.748981 a 3.3481322,3.3481322 0 0 0 -2.123063,2.123055 l -0.748975,2.24886 a 0.41996809,0.41996809 0 0 1 -0.797359,0 l -0.748975,-2.24886 A 3.3481322,3.3481322 0 0 0 7.9235492,10.403494 L 5.6746861,9.654513 a 0.41996809,0.41996809 0 0 1 0,-0.797359 L 7.9235492,8.1081812 A 3.3481322,3.3481322 0 0 0 10.046614,5.9851177 Z M 24.47648,1.7060858 a 0.28062381,0.28062381 0 0 1 0.530295,0 l 0.499309,1.4979522 c 0.222566,0.6696268 0.747048,1.1941026 1.416666,1.4166665 l 1.497958,0.4993171 a 0.28062381,0.28062381 0 0 1 0,0.5302816 L 26.92275,6.1496201 A 2.2449914,2.2449914 0 0 0 25.506084,7.5662874 L 25.006775,9.064238 a 0.28062381,0.28062381 0 0 1 -0.530295,0 L 23.977174,7.5662874 A 2.2449914,2.2449914 0 0 0 22.560499,6.1496201 L 21.064487,5.6503032 a 0.28062381,0.28062381 0 0 1 0,-0.5302816 L 22.562444,4.6207045 C 23.232057,4.3981406 23.756531,3.8736648 23.979109,3.204038 Z"
     id="path1"
     style="display:inline;fill:#f05722;fill-opacity:1;stroke-width:1.93533" />
</svg>
